<svg width="24" height="20" viewBox="0 0 24 20" fill="none" xmlns="http://www.w3.org/2000/svg">
<path d="M21.4664 1.76815C20.9058 1.20759 20.2403 0.762921 19.5077 0.459537C18.7752 0.156152 17.99 0 17.1971 0C16.4042 0 15.619 0.156152 14.8865 0.459537C14.1539 0.762921 13.4884 1.20759 12.9278 1.76815L11.7645 2.93095L10.6011 1.76815C9.46885 0.636397 7.93315 0.000586625 6.33186 0.000586637C4.73057 0.000586649 3.19486 0.636397 2.06258 1.76815C0.930299 2.89989 0.294189 4.43487 0.294189 6.03541C0.294189 7.63594 0.930299 9.17092 2.06258 10.3027L3.22593 11.4655L11.7645 20L20.303 11.4655L21.4664 10.3027C22.0272 9.74238 22.4721 9.07714 22.7756 8.34495C23.0791 7.61276 23.2354 6.82796 23.2354 6.03541C23.2354 5.24285 23.0791 4.45806 22.7756 3.72587C22.4721 2.99368 22.0272 2.32844 21.4664 1.76815V1.76815Z" fill="#000"/>
</svg>
